<svg width="18" height="18" viewBox="0 0 18 18" fill="none" xmlns="http://www.w3.org/2000/svg">
<path fill-rule="evenodd" clip-rule="evenodd" d="M16.593 1.70712C16.2024 1.31659 15.5693 1.3166 15.1788 1.70714L7.99279 8.89346C7.60228 9.28399 7.60229 9.91714 7.9928 10.3077L14.9653 17.2802C15.3558 17.6707 15.989 17.6707 16.3795 17.2802L17.0794 16.5803C17.47 16.1898 17.4699 15.5566 17.0794 15.166L12.2204 10.3077C11.8298 9.91718 11.8298 9.28396 12.2203 8.89342L17.2928 3.82125C17.6834 3.43073 17.6834 2.79755 17.2929 2.40701L16.593 1.70712Z" fill="#666666"/>
<path fill-rule="evenodd" clip-rule="evenodd" d="M9.59298 1.70712C9.20245 1.31659 8.56927 1.3166 8.17875 1.70714L0.992785 8.89346C0.602278 9.28399 0.602286 9.91714 0.992803 10.3077L7.96532 17.2802C8.35585 17.6707 8.98901 17.6707 9.37954 17.2802L10.0794 16.5803C10.47 16.1898 10.4699 15.5566 10.0794 15.166L5.22037 10.3077C4.82979 9.91718 4.82978 9.28396 5.22034 8.89342L10.2928 3.82125C10.6834 3.43073 10.6834 2.79755 10.2929 2.40701L9.59298 1.70712Z" fill="#666666"/>
</svg>
