<svg width="18" height="18" viewBox="0 0 18 18" fill="none" xmlns="http://www.w3.org/2000/svg">
<path fill-rule="evenodd" clip-rule="evenodd" d="M1.40702 1.70712C1.79755 1.31659 2.43073 1.3166 2.82125 1.70714L10.0072 8.89346C10.3977 9.28399 10.3977 9.91714 10.0072 10.3077L3.03468 17.2802C2.64415 17.6707 2.01099 17.6707 1.62046 17.2802L0.920583 16.5803C0.53004 16.1898 0.530062 15.5566 0.920632 15.166L5.77963 10.3077C6.17021 9.91718 6.17022 9.28396 5.77966 8.89342L0.707154 3.82125C0.316608 3.43073 0.316597 2.79755 0.70713 2.40701L1.40702 1.70712Z" fill="#666666"/>
<path fill-rule="evenodd" clip-rule="evenodd" d="M8.40702 1.70712C8.79755 1.31659 9.43073 1.3166 9.82125 1.70714L17.0072 8.89346C17.3977 9.28399 17.3977 9.91714 17.0072 10.3077L10.0347 17.2802C9.64415 17.6707 9.01099 17.6707 8.62046 17.2802L7.92058 16.5803C7.53004 16.1898 7.53006 15.5566 7.92063 15.166L12.7796 10.3077C13.1702 9.91718 13.1702 9.28396 12.7797 8.89342L7.70715 3.82125C7.31661 3.43073 7.3166 2.79755 7.70713 2.40701L8.40702 1.70712Z" fill="#666666"/>
</svg>
