<svg width="12" height="14" viewBox="0 0 12 14" fill="none" xmlns="http://www.w3.org/2000/svg">
    <g clip-path="url(#clip0_273_19)">
        <path fill-rule="evenodd" clip-rule="evenodd"
            d="M11.9139 6.74889C12.7391 3.36926 9.82867 -0.00509644 5.99556 -0.00509644C2.16353 -0.00509644 -0.747171 3.3739 0.0773632 6.7493C0.713791 9.49073 3.28739 12.1533 4.82339 13.5419C5.48122 14.1365 6.5099 14.1365 7.16773 13.5419C8.70379 12.1532 11.2776 9.49044 11.9139 6.74889ZM5.99556 1.16157C9.00347 1.16157 11.3169 3.83689 10.6679 6.49479C10.3562 7.77188 9.65677 8.91871 8.83605 9.97892C7.97837 11.0869 7.00592 12.0471 6.26996 12.7124C6.10956 12.8574 5.88156 12.8574 5.72116 12.7124C4.9852 12.0471 4.01287 11.087 3.15519 9.9791C2.3344 8.91883 1.63526 7.77223 1.32329 6.49508C0.674951 3.84098 2.98925 1.16157 5.99556 1.16157Z"
            fill="#0F0F0F" />
        <ellipse cx="5.74469" cy="5.48333" rx="1.65957" ry="1.51667" fill="#0F0F0F" />
    </g>
    <defs>
        <clipPath id="clip0_273_19">
            <rect width="12" height="14" fill="white" />
        </clipPath>
    </defs>
</svg>
    