<svg width="25" height="25" viewBox="0 0 25 25" fill="none" xmlns="http://www.w3.org/2000/svg">
    <path
        d="M12.5 0.6875C15.6329 0.6875 18.6374 1.93203 20.8527 4.1473C23.068 6.36257 24.3125 9.36713 24.3125 12.5C24.3125 15.6329 23.068 18.6374 20.8527 20.8527C18.6374 23.068 15.6329 24.3125 12.5 24.3125C9.36713 24.3125 6.36257 23.068 4.1473 20.8527C1.93203 18.6374 0.6875 15.6329 0.6875 12.5C0.6875 9.36713 1.93203 6.36257 4.1473 4.1473C6.36257 1.93203 9.36713 0.6875 12.5 0.6875ZM12.5 22.625C15.1853 22.625 17.7606 21.5583 19.6595 19.6595C21.5583 17.7606 22.625 15.1853 22.625 12.5C22.625 9.81468 21.5583 7.23935 19.6595 5.34054C17.7606 3.44174 15.1853 2.375 12.5 2.375C9.81468 2.375 7.23935 3.44174 5.34054 5.34054C3.44174 7.23935 2.375 9.81468 2.375 12.5C2.375 15.1853 3.44174 17.7606 5.34054 19.6595C7.23935 21.5583 9.81468 22.625 12.5 22.625ZM13.7656 17.9844C13.7656 18.32 13.6323 18.642 13.3949 18.8793C13.1576 19.1167 12.8357 19.25 12.5 19.25C12.1643 19.25 11.8424 19.1167 11.6051 18.8793C11.3677 18.642 11.2344 18.32 11.2344 17.9844C11.2344 17.6487 11.3677 17.3268 11.6051 17.0894C11.8424 16.8521 12.1643 16.7187 12.5 16.7187C12.8357 16.7187 13.1576 16.8521 13.3949 17.0894C13.6323 17.3268 13.7656 17.6487 13.7656 17.9844ZM12.5 5.75C12.7238 5.75 12.9384 5.83889 13.0966 5.99713C13.2549 6.15536 13.6597 6.42227 13.6597 6.64604L13.3437 14.1875C13.3437 14.4113 13.2549 14.6259 13.0966 14.7841C12.9384 14.9424 12.7238 15.0312 12.5 15.0312C12.2762 15.0312 12.0616 14.9424 11.9034 14.7841C11.7451 14.6259 11.6562 14.4113 11.6562 14.1875L11.4097 6.64604C11.4097 6.42227 11.7451 6.15536 11.9034 5.99713C12.0616 5.83889 12.2762 5.75 12.5 5.75Z"
        fill="white" />
</svg>