<svg
    xmlns="http://www.w3.org/2000/svg"
    xmlns:xlink="http://www.w3.org/1999/xlink"
    width="44.5px" height="52.5px">
    <path fill-rule="evenodd" stroke-linecap="butt"
        stroke-linejoin="miter" stroke-width="2px" stroke="rgb(51, 51, 51)" fill="none"
        d="M5.495,3.494 L37.495,3.494 C38.600,3.494 39.495,4.389 39.495,5.494 L39.495,45.494 C39.495,46.599 38.600,47.494 37.495,47.494 L5.495,47.494 C4.391,47.494 3.495,46.599 3.495,45.494 L3.495,5.494 C3.495,4.389 4.391,3.494 5.495,3.494 Z" />
    <path fill-rule="evenodd" fill="rgb(51, 51, 51)"
        d="M10.622,25.499 L10.622,21.874 L32.378,21.874 L32.378,25.499 L10.622,25.499 ZM10.622,14.622 L32.378,14.622 L32.378,18.248 L10.622,18.248 L10.622,14.622 ZM25.126,32.751 L10.622,32.751 L10.622,29.125 L25.126,29.125 L25.126,32.751 Z" />
</svg>