<svg width="130" height="140" viewBox="0 0 130 140" fill="none" xmlns="http://www.w3.org/2000/svg">
    <path d="M130 70C130 105.899 100.899 135 65 135C29.1015 135 0 105.899 0 70C0 34.1015 29.1015 5 65 5C100.899 5 130 34.1015 130 70Z" fill="#60C3B7"/>
    <path d="M40.84 35.1074C56.9733 35.211 73.8036 35.1074 89.7105 35.211C94 35.239 94 35.2111 94 40.0962C94 52.2759 94 98.8188 94 102.424C94 106.029 94 106.029 87.7805 106.029C81.5611 106.029 56.0115 106.029 39.1812 106.029C32.0757 106.029 32.0757 106.028 32.0757 97.0035C31.926 78.3435 32.0382 58.7563 32.0757 40.0962C32.0757 35.1074 32.0757 35.0511 40.84 35.1074Z" fill="white"/>
    <path d="M54.6286 47C54.6286 47 55.4179 47.8791 55.8125 48.3187L45.9464 57.9892C44.7625 56.6705 43.9306 55.6883 42 53.1539L43.1839 52.2748L45.9464 55.7913L54.6286 47Z" fill="#60C3B7"/>
    <path d="M54.6286 81.9655C54.6286 81.9655 55.4179 82.9246 55.8125 83.4041L45.9464 93.9537C44.7625 92.5152 43.9306 91.4437 42 88.6789L43.1839 87.7199L45.9464 91.5561L54.6286 81.9655Z" fill="#60C3B7"/>
    <path d="M54.6286 63.9833C54.6286 63.9833 55.4179 64.9423 55.8125 65.4219L45.9464 75.9715C44.7625 74.5329 43.9306 73.4614 42 70.6967L43.1839 69.7376L45.9464 73.5738L54.6286 63.9833Z" fill="#60C3B7"/>
    <path d="M84.25 52.9941V54.9921H56.625V52.9941H84.25Z" fill="#60C3B7"/>
    <path d="M84.25 70.9764V72.9744H56.625V70.9764H84.25Z" fill="#60C3B7"/>
    <path d="M84.25 88.9586V90.9567H56.625V88.9586H84.25Z" fill="#60C3B7"/>
    </svg>
    