<svg width="42" height="42" viewBox="0 0 42 42" fill="none" xmlns="http://www.w3.org/2000/svg">
<g clip-path="url(#clip0_243_10)">
<circle cx="31" cy="8" r="8" fill="#FF626A"/>
<path d="M31.607 7.46271C31.1619 6.57366 30.3932 5.80813 29.4181 5.14819C27.9508 4.159 25.9938 3.38696 23.705 2.84449C21.416 2.30381 18.7924 2 16 2C11.7445 2.00239 7.88472 2.70045 4.99447 3.88421C3.5493 4.47914 2.34024 5.1964 1.45137 6.05656C1.00831 6.48687 0.646497 6.95583 0.393102 7.46278C0.140318 7.96972 -0.000610081 8.51638 1.98539e-06 9.07579V28.9238C-0.000610081 29.4831 0.140318 30.0304 0.393102 30.5368C0.838227 31.4258 1.60698 32.1913 2.58201 32.8519C4.04944 33.8411 6.00629 34.6132 8.29527 35.1556C10.5841 35.6962 13.2077 35.9995 16 36C20.2563 35.9969 24.1153 35.2997 27.0056 34.1152C28.4507 33.5203 29.6598 32.8036 30.5486 31.9429C30.9918 31.5131 31.3535 31.0442 31.607 30.5367C31.8598 30.0304 32.0007 29.483 32 28.9237V9.07572C32.0008 8.51631 31.8598 7.96966 31.607 7.46271ZM29.7931 28.9238C29.7924 29.2088 29.7251 29.4867 29.5813 29.7766C29.3313 30.2811 28.8278 30.8236 28.0618 31.3401C26.9167 32.1171 25.2028 32.8181 23.125 33.3075C21.0472 33.7981 18.6069 34.085 16 34.0844C12.0285 34.0875 8.43956 33.4148 5.93888 32.384C4.68744 31.8717 3.71525 31.2701 3.09721 30.6668C2.78613 30.3654 2.5625 30.0653 2.41874 29.7765C2.2749 29.4866 2.20757 29.2088 2.20689 28.9237V25.6459C3.48335 26.6586 5.27571 27.4674 7.4194 28.0654C9.89092 28.7507 12.8353 29.1443 16 29.1449C20.2202 29.1431 24.0459 28.4481 26.8876 27.2836C28.0299 26.8134 29.0063 26.2631 29.793 25.6368L29.7931 28.9238ZM29.7931 23.3296C29.6362 23.6219 29.4119 23.9149 29.1091 24.2108C28.1314 25.1667 26.3612 26.0667 24.0772 26.6971C21.7939 27.3312 19.0057 27.7085 16 27.708C11.9931 27.7098 8.37017 27.0346 5.82091 25.9847C4.54521 25.4621 3.54379 24.8467 2.8911 24.2108C2.58828 23.9149 2.36396 23.6219 2.20696 23.3302V19.0301C3.48343 20.0428 5.27579 20.8517 7.41947 21.4496C9.891 22.1343 12.8354 22.5279 16 22.5286C20.2202 22.5267 24.046 21.8318 26.8876 20.6672C28.03 20.197 29.0064 19.6474 29.7931 19.0211V23.3296ZM29.7931 16.7138C29.6362 17.0061 29.4119 17.299 29.1091 17.5944C28.1314 18.5503 26.3612 19.4508 24.0772 20.0807C21.7939 20.7148 19.0057 21.0921 16 21.0915C11.9931 21.0934 8.37017 20.4183 5.82091 19.3689C4.54521 18.8463 3.54379 18.2303 2.8911 17.5944C2.58828 17.299 2.36396 17.0061 2.20696 16.7138V12.4137C3.48343 13.4269 5.27579 14.2352 7.41947 14.8337C9.891 15.5191 12.8354 15.9126 16 15.9126C20.2202 15.9108 24.046 15.2164 26.8876 14.0513C28.03 13.5812 29.0064 13.0315 29.7931 12.4052V16.7138ZM29.7931 10.0973C29.6362 10.3897 29.4119 10.6832 29.1091 10.9786C28.1314 11.9352 26.3612 12.835 24.0772 13.4656C21.7939 14.0996 19.0057 14.4769 16 14.4764C11.9931 14.4782 8.37017 13.803 5.82091 12.7532C4.54521 12.2299 3.54379 11.6145 2.8911 10.9787C2.58828 10.6833 2.36396 10.3898 2.20696 10.098V9.07572C2.20773 8.79057 2.27505 8.51332 2.41881 8.22339C2.66884 7.71824 3.17227 7.17643 3.93827 6.65926C5.08345 5.88231 6.79731 5.18132 8.87505 4.69251C10.9529 4.20123 13.3931 3.91496 16 3.91555C19.9716 3.9125 23.5605 4.58526 26.0612 5.61595C27.3126 6.12768 28.2841 6.72925 28.9029 7.33322C29.2139 7.63457 29.4375 7.9342 29.5813 8.22346C29.725 8.51339 29.7923 8.79064 29.7931 9.07579V10.0973Z" fill="black"/>
<path d="M38.4956 32.7455L40.8706 32.0978C41.0431 31.0396 41.0431 29.9604 40.8706 28.9022L38.4956 28.2545C38.3825 28.2233 38.278 28.167 38.1898 28.0896C38.1017 28.0123 38.0321 27.9161 37.9864 27.8081C37.9407 27.7001 37.9201 27.5831 37.926 27.466C37.9319 27.3489 37.9642 27.2346 38.0206 27.1318L39.2297 24.9726C38.6308 24.1147 37.8853 23.3692 37.0274 22.7703L34.8682 23.9794L34.5228 24.0658C34.3491 24.0726 34.1782 24.021 34.0373 23.9192C33.8964 23.8175 33.7936 23.6714 33.7455 23.5044L33.0978 21.1294C32.0396 20.9569 30.9604 20.9569 29.9022 21.1294L29.2545 23.5044C29.2064 23.6714 29.1036 23.8175 28.9627 23.9192C28.8218 24.021 28.6509 24.0726 28.4772 24.0658L28.1318 23.9794L25.9726 22.7703C25.1147 23.3692 24.3692 24.1147 23.7703 24.9726L24.9794 27.1318C25.0358 27.2346 25.0681 27.3489 25.074 27.466C25.0799 27.5831 25.0593 27.7001 25.0136 27.8081C24.9679 27.9161 24.8983 28.0123 24.8102 28.0896C24.722 28.167 24.6175 28.2233 24.5044 28.2545L22.1294 28.9022C21.9569 29.9604 21.9569 31.0396 22.1294 32.0978L24.5044 32.7455C24.6175 32.7767 24.722 32.833 24.8102 32.9104C24.8983 32.9877 24.9679 33.0839 25.0136 33.1919C25.0593 33.2999 25.0799 33.4169 25.074 33.534C25.0681 33.6511 25.0358 33.7654 24.9794 33.8682L23.7703 36.0274C24.3692 36.8853 25.1147 37.6308 25.9726 38.2297L28.1318 37.0206L28.4772 36.9342C28.6509 36.9274 28.8218 36.979 28.9627 37.0808C29.1036 37.1825 29.2064 37.3286 29.2545 37.4956L29.9022 39.8706C30.9604 40.0431 32.0396 40.0431 33.0978 39.8706L33.7455 37.4956C33.7936 37.3286 33.8964 37.1825 34.0373 37.0808C34.1782 36.979 34.3491 36.9274 34.5228 36.9342L34.8682 37.0206L37.0274 38.2297C37.8853 37.6308 38.6308 36.8853 39.2297 36.0274L38.0206 33.8682C37.9642 33.7654 37.9319 33.6511 37.926 33.534C37.9201 33.4169 37.9407 33.2999 37.9864 33.1919C38.0321 33.0839 38.1017 32.9877 38.1898 32.9104C38.278 32.833 38.3825 32.7767 38.4956 32.7455Z" fill="#A1ABFF"/>
<path d="M39.232 33.6001L41.857 32.85C42.0477 31.6248 42.0477 30.3752 41.857 29.15L39.232 28.3999C39.107 28.3638 38.9915 28.2986 38.894 28.2091C38.7966 28.1195 38.7197 28.0081 38.6692 27.883C38.6187 27.758 38.5959 27.6226 38.6024 27.4869C38.6089 27.3513 38.6447 27.219 38.707 27.0999L40.0434 24.5999C39.3814 23.6065 38.5574 22.7433 37.6092 22.0498L35.2228 23.4498L34.841 23.5499C34.649 23.5577 34.4601 23.498 34.3044 23.3801C34.1486 23.2623 34.0351 23.0932 33.9819 22.8998L33.2659 20.1498C32.0964 19.9501 30.9036 19.9501 29.7341 20.1498L29.0181 22.8998C28.9649 23.0932 28.8514 23.2623 28.6956 23.3801C28.5399 23.498 28.351 23.5577 28.159 23.5499L27.7772 23.4498L25.3908 22.0498C24.4426 22.7433 23.6186 23.6065 22.9566 24.5999L24.293 27.0999C24.3553 27.219 24.3911 27.3513 24.3976 27.4869C24.4041 27.6226 24.3813 27.758 24.3308 27.883C24.2803 28.0081 24.2034 28.1195 24.106 28.2091C24.0085 28.2986 23.893 28.3638 23.768 28.3999L21.143 29.15C20.9523 30.3752 20.9523 31.6248 21.143 32.85L23.768 33.6001C23.893 33.6362 24.0085 33.7014 24.106 33.7909C24.2034 33.8805 24.2803 33.9919 24.3308 34.117C24.3813 34.242 24.4041 34.3774 24.3976 34.5131C24.3911 34.6487 24.3553 34.781 24.293 34.9001L22.9566 37.4001C23.6186 38.3935 24.4426 39.2567 25.3908 39.9502L27.7772 38.5502L28.159 38.4502C28.351 38.4423 28.5399 38.502 28.6956 38.6199C28.8514 38.7377 28.9649 38.9068 29.0181 39.1002L29.7341 41.8502C30.9036 42.0499 32.0964 42.0499 33.2659 41.8502L33.9819 39.1002C34.0351 38.9068 34.1486 38.7377 34.3044 38.6199C34.4601 38.502 34.649 38.4423 34.841 38.4502L35.2228 38.5502L37.6092 39.9502C38.5574 39.2567 39.3814 38.3935 40.0434 37.4001L38.707 34.9001C38.6447 34.781 38.6089 34.6487 38.6024 34.5131C38.5959 34.3774 38.6187 34.242 38.6692 34.117C38.7197 33.9919 38.7966 33.8805 38.894 33.7909C38.9915 33.7014 39.107 33.6362 39.232 33.6001ZM38.6592 31.65H38.5638C38.2019 31.7978 37.8719 32.0198 37.5932 32.3032C37.3145 32.5866 37.0928 32.9255 36.941 33.3C36.7819 33.6797 36.7037 34.0911 36.7119 34.5056C36.7202 34.9201 36.8146 35.3278 36.9887 35.7001H37.0365V35.8001L37.7524 37.0501C37.6505 37.2076 37.5209 37.3434 37.3706 37.4501L36.1774 36.7001H36.0342C35.6653 36.5009 35.256 36.398 34.841 36.4001C34.2591 36.4022 33.6917 36.5899 33.2142 36.9383C32.7367 37.2866 32.3718 37.7791 32.1682 38.3501V38.5001L31.7386 40.0002H31.2614L30.8795 38.5502V38.4502C30.681 37.8617 30.3122 37.3529 29.8246 36.9944C29.3369 36.6359 28.7547 36.4456 28.159 36.4501C27.744 36.448 27.3347 36.5509 26.9658 36.7501H26.8226L25.6294 37.5001C25.4791 37.3934 25.3495 37.2576 25.2476 37.1001L25.9635 35.8501V35.7501H26.0113C26.1854 35.3778 26.2798 34.9701 26.2881 34.5556C26.2963 34.1411 26.2181 33.7297 26.059 33.35C25.9072 32.9755 25.6855 32.6366 25.4068 32.3532C25.1281 32.0699 24.7981 31.8478 24.4362 31.7H24.293L22.9089 31.25V30.75L24.293 30.35H24.4362C24.7981 30.2022 25.1281 29.9801 25.4068 29.6968C25.6855 29.4134 25.9072 29.0745 26.059 28.7C26.2181 28.3203 26.2963 27.9089 26.2881 27.4944C26.2798 27.0799 26.1854 26.6722 26.0113 26.2999H25.9635V26.1999L25.2476 24.9499L25.6294 24.5499L26.8226 25.2999H26.9658C27.3347 25.4991 27.744 25.602 28.159 25.5999C28.7409 25.5978 29.3083 25.4101 29.7858 25.0617C30.2633 24.7134 30.6282 24.2209 30.8318 23.6499V23.4998L31.2614 21.9998H31.7386L32.1205 23.4498V23.5499C32.319 24.1383 32.6878 24.6471 33.1754 25.0056C33.6631 25.3641 34.2453 25.5544 34.841 25.5499C35.256 25.552 35.6653 25.4491 36.0342 25.2499H36.1774L37.3706 24.4999C37.5209 24.6066 37.6505 24.7424 37.7524 24.8999L37.0365 26.1499V26.2499H36.9887C36.8146 26.6222 36.7202 27.0299 36.7119 27.4444C36.7037 27.8589 36.7819 28.2703 36.941 28.65C37.0928 29.0245 37.3145 29.3634 37.5932 29.6468C37.8719 29.9301 38.2019 30.1522 38.5638 30.3H38.707L40.0911 30.7V31.2L38.707 31.6L38.6592 31.65Z" fill="black"/>
<path d="M31.5 26.7439C30.61 26.7439 29.74 27.0078 28.9999 27.5023C28.2599 27.9968 27.6831 28.6996 27.3425 29.5218C27.0019 30.3441 26.9128 31.2489 27.0865 32.1218C27.2601 32.9947 27.6887 33.7966 28.318 34.4259C28.9474 35.0552 29.7492 35.4838 30.6221 35.6575C31.495 35.8311 32.3998 35.742 33.2221 35.4014C34.0443 35.0608 34.7471 34.484 35.2416 33.744C35.7361 33.004 36 32.1339 36 31.2439C36 30.0504 35.5259 28.9059 34.682 28.0619C33.8381 27.218 32.6935 26.7439 31.5 26.7439ZM31.5 33.7439C31.0055 33.7439 30.5222 33.5973 30.1111 33.3226C29.7 33.0479 29.3795 32.6574 29.1903 32.2006C29.0011 31.7438 28.9516 31.2411 29.048 30.7562C29.1445 30.2712 29.3826 29.8258 29.7322 29.4762C30.0819 29.1265 30.5273 28.8884 31.0123 28.792C31.4972 28.6955 31.9999 28.745 32.4567 28.9342C32.9135 29.1234 33.304 29.4439 33.5787 29.855C33.8534 30.2661 34 30.7495 34 31.2439C34 31.907 33.7366 32.5428 33.2678 33.0117C32.7989 33.4805 32.163 33.7439 31.5 33.7439Z" fill="black"/>
<path d="M34.1117 31.3017C34.1117 32.71 32.97 33.8517 31.5617 33.8517C30.1534 33.8517 29.0117 32.71 29.0117 31.3017C29.0117 29.8934 30.1534 28.7517 31.5617 28.7517C32.97 28.7517 34.1117 29.8934 34.1117 31.3017Z" fill="white"/>
</g>
<defs>
<clipPath id="clip0_243_10">
<rect width="42" height="42" fill="white"/>
</clipPath>
</defs>
</svg>
