<svg width="72" height="72" viewBox="0 0 72 72" fill="none" xmlns="http://www.w3.org/2000/svg">
    <g clip-path="url(#clip0_195_21)">
        <path fill-rule="evenodd" clip-rule="evenodd"
            d="M20 0H52C63.046 0 72 8.954 72 20V52C72 63.046 63.046 72 52 72H20C8.954 72 0 63.046 0 52V20C0 8.954 8.954 0 20 0Z"
            fill="#5A4ABB" />
        <path
            d="M15.833 57.565H23.958V61.231H22.879V58.436H15.833V57.565ZM17.12 51.91V53.275H22.814V51.91H17.12ZM16.054 49.739H17.12V51.078H22.814V49.739H23.88V54.146H20.5V55.537H25.271V56.421H14.65V55.537H19.421V54.146H16.054V49.739ZM35.176 49.466H36.255V61.231H35.176V49.466ZM27.298 50.74H32.797C32.797 54.133 31.263 57.123 27.324 59.034L26.752 58.163C29.898 56.655 31.484 54.419 31.705 51.611H27.298V50.74ZM39.868 50.467H40.96V54.809H48.006V55.693H44.418V58.826H49.228V59.71H38.568V58.826H43.339V55.693H39.868V50.467ZM50.527 58.813H61.187V59.71H50.527V58.813ZM51.892 50.48H59.848V51.364H52.984V53.093H59.588V53.964H52.984V55.81H59.965V56.681H51.892V50.48Z"
            fill="#F5F5F5" />
        <g clip-path="url(#clip1_195_21)">
            <path fill-rule="evenodd" clip-rule="evenodd"
                d="M20 0H52C63.046 0 72 8.954 72 20V52C72 63.046 63.046 72 52 72H20C8.954 72 0 63.046 0 52V20C0 8.954 8.954 0 20 0Z"
                fill="#216dff" />
            <path
                d="M23.607 49.466H24.647V61.231H23.607V49.466ZM17.289 51.455C16.366 51.455 15.781 52.638 15.781 54.536C15.781 56.447 16.366 57.63 17.289 57.63C18.225 57.63 18.823 56.447 18.823 54.536C18.823 52.638 18.225 51.455 17.289 51.455ZM21.293 53.197H19.707C19.772 53.6 19.811 54.055 19.811 54.536C19.811 55.017 19.772 55.472 19.707 55.888H21.293V53.197ZM17.289 50.454C18.303 50.454 19.07 51.13 19.486 52.313H21.293V49.713H22.32V60.633H21.293V56.785H19.473C19.07 57.968 18.29 58.644 17.289 58.644C15.781 58.644 14.793 57.058 14.793 54.536C14.793 52.027 15.781 50.454 17.289 50.454ZM31.991 56.915C34.383 56.915 35.839 57.708 35.839 59.06C35.839 60.425 34.383 61.205 31.991 61.205C29.586 61.205 28.117 60.425 28.117 59.06C28.117 57.708 29.586 56.915 31.991 56.915ZM31.991 57.773C30.249 57.773 29.183 58.254 29.183 59.06C29.183 59.879 30.249 60.347 31.991 60.347C33.733 60.347 34.786 59.879 34.786 59.06C34.786 58.254 33.733 57.773 31.991 57.773ZM29.469 50.077H30.535V51.364C30.535 52.95 31.705 54.419 33.395 55.004L32.823 55.849C31.536 55.368 30.535 54.406 30.028 53.197C29.534 54.575 28.507 55.641 27.129 56.174L26.557 55.316C28.325 54.666 29.469 53.08 29.469 51.273V50.077ZM34.656 49.466H35.735V52.508H37.464V53.418H35.735V56.603H34.656V49.466ZM39.868 50.467H40.96V54.809H48.006V55.693H44.418V58.826H49.228V59.71H38.568V58.826H43.339V55.693H39.868V50.467ZM50.527 58.813H61.187V59.71H50.527V58.813ZM51.892 50.48H59.848V51.364H52.984V53.093H59.588V53.964H52.984V55.81H59.965V56.681H51.892V50.48Z"
                fill="#F5F5F5" />
            <path
                d="M35 25H44M35 32H44M30.262 22.0092C28.8817 22.1263 28.0296 23.2125 28.0007 24.4471C27.9711 25.7139 28.8456 26.8715 30.262 26.991C31.8001 27.1208 33.0322 25.8228 32.9994 24.4471C32.9672 23.101 31.767 21.8816 30.262 22.0092ZM25 15H47C48.1046 15 49 15.8954 49 17V40C49 41.1046 48.1046 42 47 42H25C23.8954 42 23 41.1046 23 40V17C23 15.8954 23.8954 15 25 15ZM30.3404 30.0042C28.8679 30.0904 27.8381 31.4333 28.021 32.8115C28.1799 34.0081 29.0622 34.9159 30.3404 34.995C31.7417 35.0818 32.8741 34.025 32.9911 32.7075C33.1183 31.2758 31.8636 29.9149 30.3404 30.0042Z"
                stroke="white" stroke-width="2" />
        </g>
    </g>
    <defs>
        <clipPath id="clip0_195_21">
            <rect width="72" height="72" fill="white" />
        </clipPath>
        <clipPath id="clip1_195_21">
            <rect width="72" height="72" fill="white" />
        </clipPath>
    </defs>
</svg>