<svg width="72" height="72" viewBox="0 0 72 72" fill="none" xmlns="http://www.w3.org/2000/svg">
    <g clip-path="url(#clip0_195_2)">
        <path fill-rule="evenodd" clip-rule="evenodd"
            d="M20 0H52C63.046 0 72 8.954 72 20V52C72 63.046 63.046 72 52 72H20C8.954 72 0 63.046 0 52V20C0 8.954 8.954 0 20 0Z"
            fill="#5e01e7" />
        <path
            d="M15.833 57.565H23.958V61.231H22.879V58.436H15.833V57.565ZM17.12 51.91V53.275H22.814V51.91H17.12ZM16.054 49.739H17.12V51.078H22.814V49.739H23.88V54.146H20.5V55.537H25.271V56.421H14.65V55.537H19.421V54.146H16.054V49.739ZM35.176 49.466H36.255V61.231H35.176V49.466ZM27.298 50.74H32.797C32.797 54.133 31.263 57.123 27.324 59.034L26.752 58.163C29.898 56.655 31.484 54.419 31.705 51.611H27.298V50.74ZM39.868 50.467H40.96V54.809H48.006V55.693H44.418V58.826H49.228V59.71H38.568V58.826H43.339V55.693H39.868V50.467ZM50.527 58.813H61.187V59.71H50.527V58.813ZM51.892 50.48H59.848V51.364H52.984V53.093H59.588V53.964H52.984V55.81H59.965V56.681H51.892V50.48Z"
            fill="#F5F5F5" />
        <g clip-path="url(#clip1_195_2)">
            <path fill-rule="evenodd" clip-rule="evenodd"
                d="M20 0H52C63.046 0 72 8.954 72 20V52C72 63.046 63.046 72 52 72H20C8.954 72 0 63.046 0 52V20C0 8.954 8.954 0 20 0Z"
                fill="#5e01e7" />
            <path
                d="M15.833 57.565H23.958V61.231H22.879V58.436H15.833V57.565ZM17.12 51.91V53.275H22.814V51.91H17.12ZM16.054 49.739H17.12V51.078H22.814V49.739H23.88V54.146H20.5V55.537H25.271V56.421H14.65V55.537H19.421V54.146H16.054V49.739ZM35.176 49.466H36.255V61.231H35.176V49.466ZM27.298 50.74H32.797C32.797 54.133 31.263 57.123 27.324 59.034L26.752 58.163C29.898 56.655 31.484 54.419 31.705 51.611H27.298V50.74ZM39.868 50.467H40.96V54.809H48.006V55.693H44.418V58.826H49.228V59.71H38.568V58.826H43.339V55.693H39.868V50.467ZM50.527 58.813H61.187V59.71H50.527V58.813ZM51.892 50.48H59.848V51.364H52.984V53.093H59.588V53.964H52.984V55.81H59.965V56.681H51.892V50.48Z"
                fill="#F5F5F5" />
            <path
                d="M35 25H44M35 32H44M30.262 22.0092C28.8817 22.1263 28.0296 23.2125 28.0007 24.4471C27.9711 25.7139 28.8456 26.8715 30.262 26.991C31.8001 27.1208 33.0322 25.8228 32.9994 24.4471C32.9672 23.101 31.767 21.8816 30.262 22.0092ZM25 15H47C48.1046 15 49 15.8954 49 17V40C49 41.1046 48.1046 42 47 42H25C23.8954 42 23 41.1046 23 40V17C23 15.8954 23.8954 15 25 15ZM30.3404 30.0042C28.8679 30.0904 27.8381 31.4333 28.021 32.8115C28.1799 34.0081 29.0622 34.9159 30.3404 34.995C31.7417 35.0818 32.8741 34.025 32.9911 32.7075C33.1183 31.2758 31.8636 29.9149 30.3404 30.0042Z"
                stroke="white" stroke-width="2" />
        </g>
    </g>
    <defs>
        <clipPath id="clip0_195_2">
            <rect width="72" height="72" fill="white" />
        </clipPath>
        <clipPath id="clip1_195_2">
            <rect width="72" height="72" fill="white" />
        </clipPath>
    </defs>
</svg>