<svg width="130" height="160" viewBox="0 0 130 160" fill="none" xmlns="http://www.w3.org/2000/svg">
    <path fill-rule="evenodd" clip-rule="evenodd"
        d="M65 15C100.898 15 130 44.1016 130 80C130 115.898 100.898 145 65 145C29.1016 145 0 115.898 0 80C0 44.1016 29.1016 15 65 15Z"
        fill="#49C999" />
    <path
        d="M95 63.5385V105.7C95 109.18 91.9524 112 88.1923 112H42.8077C39.0476 112 36 109.18 36 105.7V55.3C36 51.8203 39.0476 49 42.8077 49H70.2411"
        stroke="white" stroke-width="3" stroke-linecap="round" />
    <path
        d="M49.7751 88.8314L80.3475 50.5245C82.5444 47.7719 86.5133 47.3614 89.2142 49.6236C91.9074 51.8794 92.3174 55.9443 90.1142 58.7048L59.5418 97.0117L47.9303 101.724C47.7393 101.801 47.5458 101.639 47.5821 101.432L49.7751 88.8314Z"
        fill="#DFD1BE" />
    <path
        d="M89.5614 49.1885C92.4867 51.6387 92.926 56.0714 90.5398 59.0613L59.879 97.4789L48.1236 102.242C47.8511 102.357 47.5411 102.309 47.309 102.114C47.0845 101.926 46.9766 101.625 47.0246 101.322L49.247 88.587L79.9141 50.1614C82.3081 47.178 86.6283 46.7318 89.5614 49.1885ZM59.1967 96.5379L89.6808 58.3418C91.6882 55.8265 91.3202 52.1134 88.8592 50.0521C86.3982 47.9908 82.7729 48.3592 80.7654 50.8745L50.2813 89.0706L48.2068 101.005L59.1967 96.5379Z"
        fill="#BDBDD7" />
    <path
        d="M49.9519 88.6099L80.3475 50.5244C82.5444 47.7719 86.5133 47.3613 89.2142 49.6236C91.9074 51.8793 92.3174 55.9443 90.1142 58.7048L59.7185 96.7902L49.9519 88.6099Z"
        fill="#FFCC52" />
    <path
        d="M89.5614 49.1886C92.4868 51.6388 92.9261 56.0714 90.5399 59.0613L59.797 97.5818L49.179 88.6885L79.9219 50.168C82.3081 47.1781 86.6283 46.7319 89.5614 49.1886ZM59.6323 95.9922L89.6808 58.3418C91.6883 55.8265 91.3203 52.1134 88.8593 50.0521C86.3982 47.9909 82.7729 48.3592 80.7654 50.8745L50.7169 88.5249L59.6323 95.9922Z"
        fill="#DAD099" />
    <path
        d="M89.3014 44.4346L94.1873 48.5269C96.928 51.109 96.9271 51.0991 93.9129 54.8761L89.1139 60.8891L78.4829 51.9848L83.2819 45.9718C86.2533 42.0106 86.2533 42.0106 89.3014 44.4346Z"
        fill="#EA5D4A" />
    <path d="M87.9679 61.3941L78.2012 53.2138L80.2718 50.6194L90.0385 58.7997L87.9679 61.3941Z"
        fill="#D5D9CF" />
    <path
        d="M80.1997 49.8199L90.8099 58.7068L88.045 62.1712L77.427 53.2779L80.1919 49.8134L80.1997 49.8199ZM89.2642 58.8638L80.3488 51.3965L78.9727 53.1209L87.8881 60.5881L89.2642 58.8638Z"
        fill="#BDBDD7" />
    <path d="M57.3763 94.7096L56.525 93.9966L84.7175 58.6717L85.5688 59.3847L57.3763 94.7096Z"
        fill="#CECEEC" />
    <path d="M53.4216 91.3972L52.5703 90.6842L80.7629 55.3593L81.6142 56.0723L53.4216 91.3972Z"
        fill="#DAD099" />
    <path
        d="M48.373 96.8819L47.5743 101.426C47.5381 101.633 47.7315 101.795 47.9226 101.717L52.1109 100.013L51.1668 99.2219L50.7684 97.7796L49.2939 97.6532L48.373 96.8819Z"
        fill="#57888B" />
    <path
        d="M51.199 97.2561L51.6533 98.9035L53.1856 100.187L48.1299 102.234C47.8574 102.349 47.5475 102.301 47.3153 102.106C47.0909 101.918 46.9829 101.617 47.031 101.314L47.985 95.831L49.5096 97.1079L51.199 97.2561ZM51.044 99.8448L50.688 99.5467L50.3454 98.3095L49.0783 98.1984L48.7455 97.9197L48.2068 101.005L51.044 99.8448Z"
        fill="#BDBDD7" />
</svg>
    