<svg width="23" height="23" viewBox="0 0 23 23" fill="none" xmlns="http://www.w3.org/2000/svg">
    <path d="M9 5H21" stroke="black" stroke-width="2"/>
    <path d="M9 11H21" stroke="black" stroke-width="2"/>
    <path d="M9 18H21" stroke="black" stroke-width="2"/>
    <path d="M2 3L5 6L8 3" stroke="black" stroke-width="1.5"/>
    <path d="M3 11C3 9.77996 3.9833 9 5 9C6.0167 9 7 9.77996 7 11C7 12.22 6.0167 13 5 13C3.9833 13 3 12.22 3 11Z" stroke="#FF5151" stroke-width="1.5"/>
    <path d="M3 18C3 16.8954 3.89543 16 5 16C6.10457 16 7 16.8954 7 18C7 19.1046 6.10457 20 5 20C3.89543 20 3 19.1046 3 18Z" stroke="black" stroke-width="1.5"/>
    </svg>
    